<?xml version="1.0" encoding="UTF-8" standalone="no"?>
<!-- Generator: Adobe Illustrator 22.1.0, SVG Export Plug-In . SVG Version: 6.00 Build 0)  -->

<svg
   xmlns:dc="http://purl.org/dc/elements/1.1/"
   xmlns:cc="http://creativecommons.org/ns#"
   xmlns:rdf="http://www.w3.org/1999/02/22-rdf-syntax-ns#"
   xmlns:svg="http://www.w3.org/2000/svg"
   xmlns="http://www.w3.org/2000/svg"
   xmlns:sodipodi="http://sodipodi.sourceforge.net/DTD/sodipodi-0.dtd"
   xmlns:inkscape="http://www.inkscape.org/namespaces/inkscape"
   version="1.1"
   id="Ebene_1"
   x="0px"
   y="0px"
   viewBox="0 0 313 166"
   style="enable-background:new 0 0 313 166;"
   xml:space="preserve"
   sodipodi:docname="studieren_im_markt_portal_logo_blank.svg"
   inkscape:version="0.92.3 (2405546, 2018-03-11)"><metadata
   id="metadata47"><rdf:RDF><cc:Work
       rdf:about=""><dc:format>image/svg+xml</dc:format><dc:type
         rdf:resource="http://purl.org/dc/dcmitype/StillImage" /></cc:Work></rdf:RDF></metadata><defs
   id="defs45" /><sodipodi:namedview
   pagecolor="#ffffff"
   bordercolor="#666666"
   borderopacity="1"
   objecttolerance="10"
   gridtolerance="10"
   guidetolerance="10"
   inkscape:pageopacity="0"
   inkscape:pageshadow="2"
   inkscape:window-width="2736"
   inkscape:window-height="1699"
   id="namedview43"
   showgrid="false"
   inkscape:zoom="1.4216867"
   inkscape:cx="166.69915"
   inkscape:cy="83"
   inkscape:window-x="-13"
   inkscape:window-y="-13"
   inkscape:window-maximized="1"
   inkscape:current-layer="Ebene_1" />
<style
   type="text/css"
   id="style2">
	.st0{fill:#E5004B;}
	.st1{fill:#09497D;}
	.st2{fill:#FFFFFF;}
</style>
<path
   class="st0"
   d="M12.7,6.1L12.7,6.1c2,2.6,2.6,7,1.5,11.6c-1.1,4.2-3.5,7.6-6.2,9.1l74.8,18.9L88,25.1L12.7,6.1"
   id="path4" />
<path
   class="st0"
   d="M82.3,63.7H4.7c2.5,2,4.3,6.1,4.3,10.9C9,79,7.5,82.8,5.3,85h77.1V63.7"
   id="path6" />
<path
   class="st1"
   d="M247.1,102.7h-58.2v18.7h26.4c-15.5,14-35.4,21.6-56.4,21.6c-22.5,0-43.7-8.8-59.6-24.7L86,131.6  c19.5,19.5,45.4,30.2,72.9,30.2c25.9,0,50.4-9.5,69.5-27v26.1h18.7V102.7"
   id="path8" />
















</svg>